HIERARCHY
ROOT joint_Root
{
	OFFSET 0.0 0.0 0.0
	CHANNELS 6 Xposition Yposition Zposition Zrotation Xrotation Yrotation 
	JOINT Hips
	{
		OFFSET 4.5925 91.4895 -427.239
		CHANNELS 6 Xposition Yposition Zposition Zrotation Xrotation Yrotation 
		JOINT Spine
		{
			OFFSET 15.7357 0.0 0.0
			CHANNELS 6 Xposition Yposition Zposition Zrotation Xrotation Yrotation 
			JOINT Chest
			{
				OFFSET 8.98455 -0.406207 0.0
				CHANNELS 6 Xposition Yposition Zposition Zrotation Xrotation Yrotation 
				JOINT Neck
				{
					OFFSET 16.3773 0.0 0.0
					CHANNELS 6 Xposition Yposition Zposition Zrotation Xrotation Yrotation 
					JOINT Head
					{
						OFFSET 6.45672 0.0 0.0
						CHANNELS 6 Xposition Yposition Zposition Zrotation Xrotation Yrotation 
						End Site
						{
							OFFSET 0.0 0.0 0.0
						}
					}
				}
				JOINT Shoulder_L
				{
					OFFSET 12.9942 -0.242716 4.98039
					CHANNELS 6 Xposition Yposition Zposition Zrotation Xrotation Yrotation 
					JOINT UpperArm_L
					{
						OFFSET 5.34809 0.0 0.0
						CHANNELS 6 Xposition Yposition Zposition Zrotation Xrotation Yrotation 
						JOINT LowerArm_L
						{
							OFFSET 24.3286 1.87007e-05 0.0
							CHANNELS 6 Xposition Yposition Zposition Zrotation Xrotation Yrotation 
							JOINT Hand_L
							{
								OFFSET 22.2916 0.0 0.0
								CHANNELS 6 Xposition Yposition Zposition Zrotation Xrotation Yrotation 
								End Site
								{
									OFFSET 0.0 0.0 0.0
								}
							}
						}
					}
				}
				JOINT Shoulder_R
				{
					OFFSET 12.9945 -0.242716 -4.98039
					CHANNELS 6 Xposition Yposition Zposition Zrotation Xrotation Yrotation 
					JOINT UpperArm_R
					{
						OFFSET -5.34813 0.0 0.0
						CHANNELS 6 Xposition Yposition Zposition Zrotation Xrotation Yrotation 
						JOINT LowerArm_R
						{
							OFFSET -24.3289 0.000322201 0.0
							CHANNELS 6 Xposition Yposition Zposition Zrotation Xrotation Yrotation 
							JOINT Hand_R
							{
								OFFSET -22.2915 -0.000108084 0.0
								CHANNELS 6 Xposition Yposition Zposition Zrotation Xrotation Yrotation 
								End Site
								{
									OFFSET 0.0 0.0 0.0
								}
							}
						}
					}
				}
			}
		}
		JOINT UpperLeg_L
		{
			OFFSET -2.19248 -6.46944 0.0
			CHANNELS 6 Xposition Yposition Zposition Zrotation Xrotation Yrotation 
			JOINT LowerLeg_L
			{
				OFFSET 39.0811 0.0 -1.23785e-05
				CHANNELS 6 Xposition Yposition Zposition Zrotation Xrotation Yrotation 
				JOINT Foot_L
				{
					OFFSET 40.9854 0.0 -1.26872e-05
					CHANNELS 6 Xposition Yposition Zposition Zrotation Xrotation Yrotation 
					JOINT Toes_L
					{
						OFFSET 11.7543 0.0 0.0
						CHANNELS 6 Xposition Yposition Zposition Zrotation Xrotation Yrotation 
						End Site
						{
							OFFSET 0.0 0.0 0.0
						}
					}
				}
			}
		}
		JOINT UpperLeg_R
		{
			OFFSET -2.19251 6.46944 0.0
			CHANNELS 6 Xposition Yposition Zposition Zrotation Xrotation Yrotation 
			JOINT LowerLeg_R
			{
				OFFSET -39.0811 -0.00228153 -0.0401928
				CHANNELS 6 Xposition Yposition Zposition Zrotation Xrotation Yrotation 
				JOINT Foot_R
				{
					OFFSET -40.9854 0.0 0.0
					CHANNELS 6 Xposition Yposition Zposition Zrotation Xrotation Yrotation 
					JOINT Toes_R
					{
						OFFSET -11.7543 0.0 0.0
						CHANNELS 6 Xposition Yposition Zposition Zrotation Xrotation Yrotation 
						End Site
						{
							OFFSET 0.0 0.0 0.0
						}
					}
				}
			}
		}
	}
}
MOTION
Frames:	8
Frame Time:	0.0333333
0.000000 0.000000 0.000000 0.000000 0.000000 -0.000000 -4.548320 90.219400 3.529450 90.835000 0.400877 11.872000 15.735700 0.000005 -0.000001 82.700100 84.017400 -82.774300 8.984550 -0.406207 -0.000000 4.102390 -1.515670 -0.093906 16.377300 -0.000001 -0.000001 32.691500 -4.789670 3.255190 6.456720 -0.000001 -0.000000 21.897800 -5.900710 0.410626 12.994200 -0.242716 4.980390 -86.015700 -9.440360 -66.991500 5.348090 -0.000007 -0.000001 -51.725900 -37.964100 -84.173300 24.328600 0.000019 0.000005 18.710700 12.648800 -57.115800 22.291600 -0.000001 0.000005 19.670800 5.263490 1.073550 12.994500 -0.242716 -4.980390 91.515900 -4.825030 -72.535400 -5.348130 -0.000001 -0.000004 -43.269300 -40.377200 -70.725700 -24.328900 0.000322 -0.000009 4.478030 2.231940 -63.567000 -22.291500 -0.000108 -0.000004 26.659900 5.481230 -5.795410 -2.192480 -6.469440 -0.000000 -172.141000 -10.661400 4.572420 39.081100 -0.000007 -0.000012 -0.279832 0.488096 29.826800 40.985400 -0.000006 -0.000013 -2.363170 8.110930 -71.734400 11.754300 -0.000000 0.000003 -0.000186 -0.001745 -16.643500 -2.192510 6.469440 -0.000001 172.796000 23.733500 -172.992000 -39.081100 -0.002282 -0.040193 -0.245528 0.422604 30.489900 -40.985400 0.000008 0.000006 5.284270 11.358500 -75.191900 -11.754300 -0.000006 -0.000006 -0.001678 -0.024605 -17.573600
0.000000 0.000000 0.000000 0.000000 0.000000 -0.000000 -4.563710 90.204000 3.723140 90.890600 0.454898 11.774400 15.735700 0.000005 -0.000001 82.769500 84.055100 -82.850000 8.984550 -0.406207 -0.000000 4.029230 -1.491620 -0.108283 16.377300 -0.000001 -0.000001 32.750900 -4.796450 3.241080 6.456720 -0.000001 -0.000000 21.825200 -5.916700 0.471643 12.994200 -0.242716 4.980390 -85.977200 -9.492600 -66.905100 5.348090 -0.000007 -0.000001 -51.950100 -38.126400 -84.453800 24.328600 0.000019 0.000005 18.690100 12.674300 -57.033100 22.291600 -0.000001 0.000005 19.541500 5.263090 1.084130 12.994500 -0.242716 -4.980390 91.544700 -4.896830 -72.467900 -5.348130 -0.000001 -0.000004 -43.515800 -40.551700 -71.048900 -24.328900 0.000322 -0.000009 4.519350 2.261860 -63.473500 -22.291500 -0.000108 -0.000004 26.717200 5.480510 -5.768080 -2.192480 -6.469440 -0.000000 -172.201000 -10.587500 4.663330 39.081100 -0.000007 -0.000012 -0.279352 0.489189 29.729100 40.985400 -0.000006 -0.000013 -2.399690 8.079080 -71.828300 11.754300 -0.000000 0.000003 -0.000176 -0.001659 -16.640400 -2.192510 6.469440 -0.000001 172.781000 23.643800 -172.933000 -39.081100 -0.002282 -0.040193 -0.246866 0.425552 30.450100 -40.985400 0.000008 0.000006 5.280830 11.192400 -75.317200 -11.754300 -0.000006 -0.000006 -0.001579 -0.023318 -17.521300
0.000000 0.000000 0.000000 0.000000 0.000000 -0.000000 -4.565150 90.186000 3.893280 90.918400 0.559627 11.684600 15.735700 0.000005 -0.000001 82.696000 84.078000 -82.767900 8.984550 -0.406207 -0.000000 3.982040 -1.501220 -0.091496 16.377300 -0.000001 -0.000001 32.832100 -4.833520 3.278740 6.456720 -0.000001 -0.000000 21.749600 -5.951900 0.431804 12.994200 -0.242716 4.980390 -85.949500 -9.527030 -66.836700 5.348090 -0.000007 -0.000001 -52.237700 -38.311500 -84.733300 24.328600 0.000019 0.000005 18.681800 12.656400 -57.057000 22.291600 -0.000001 0.000005 19.556700 5.262070 1.111690 12.994500 -0.242716 -4.980390 91.572200 -4.962740 -72.396800 -5.348130 -0.000001 -0.000004 -43.722900 -40.765800 -71.353400 -24.328900 0.000322 -0.000009 4.363540 2.188240 -63.424400 -22.291500 -0.000108 -0.000004 26.843700 5.484380 -5.917170 -2.192480 -6.469440 -0.000000 -172.251000 -10.510400 4.678290 39.081100 -0.000007 -0.000012 -0.275961 0.483593 29.711700 40.985400 -0.000006 -0.000013 -2.414670 8.055080 -71.922800 11.754300 -0.000000 0.000003 -0.000165 -0.001576 -16.637300 -2.192510 6.469440 -0.000001 172.812000 23.612200 -172.910000 -39.081100 -0.002282 -0.040193 -0.231491 0.399228 30.460800 -40.985400 0.000008 0.000006 5.492230 10.978300 -75.495800 -11.754300 -0.000006 -0.000006 -0.001409 -0.021050 -17.429100
0.000000 0.000000 0.000000 0.000000 0.000000 -0.000000 -4.558480 90.184200 4.050590 90.892500 0.643557 11.538500 15.735700 0.000005 -0.000001 82.630700 84.105400 -82.675500 8.984550 -0.406207 -0.000000 3.926310 -1.508480 -0.037833 16.377300 -0.000001 -0.000001 32.959200 -4.873470 3.239610 6.456720 -0.000001 -0.000000 21.640100 -5.970730 0.513398 12.994200 -0.242716 4.980390 -85.920500 -9.562580 -66.764900 5.348090 -0.000007 -0.000001 -52.564200 -38.534300 -85.016900 24.328600 0.000019 0.000005 18.721400 12.639400 -57.151000 22.291600 -0.000001 0.000005 19.614000 5.263980 1.060270 12.994500 -0.242716 -4.980390 91.603300 -5.028270 -72.288600 -5.348130 -0.000001 -0.000004 -43.917000 -40.969200 -71.640300 -24.328900 0.000322 -0.000009 4.366280 2.185470 -63.467900 -22.291500 -0.000108 -0.000004 26.877400 5.483240 -5.873160 -2.192480 -6.469440 -0.000000 -172.258000 -10.421500 4.673260 39.081100 -0.000007 -0.000012 -0.277219 0.487425 29.629200 40.985400 -0.000006 -0.000013 -2.425470 8.049910 -71.994100 11.754300 -0.000000 0.000003 -0.000172 -0.001632 -16.639400 -2.192510 6.469440 -0.000001 172.880000 23.698100 -172.899000 -39.081100 -0.002282 -0.040193 -0.211015 0.365545 30.383100 -40.985400 0.000008 0.000006 5.831020 10.858100 -75.650600 -11.754300 -0.000006 -0.000006 -0.001476 -0.021952 -17.465800
0.000000 0.000000 0.000000 0.000000 0.000000 -0.000000 -4.559170 90.187000 4.174350 90.833300 0.765152 11.377300 15.735700 0.000005 -0.000001 82.438200 84.119800 -82.447700 8.984550 -0.406207 -0.000000 3.893210 -1.545130 0.033555 16.377300 -0.000001 -0.000001 33.060600 -4.929430 3.225450 6.456720 -0.000001 -0.000000 21.586900 -5.973150 0.582194 12.994200 -0.242716 4.980390 -85.886600 -9.594620 -66.661200 5.348090 -0.000007 -0.000001 -52.955600 -38.728700 -85.307000 24.328600 0.000019 0.000005 18.743500 12.567400 -57.330500 22.291600 -0.000001 0.000005 19.671100 5.262410 1.102510 12.994500 -0.242716 -4.980390 91.625900 -5.066620 -72.182500 -5.348130 -0.000001 -0.000004 -44.060700 -41.189000 -71.819200 -24.328900 0.000322 -0.000009 4.292230 2.133690 -63.623200 -22.291500 -0.000108 -0.000004 26.813000 5.485530 -5.961810 -2.192480 -6.469440 -0.000000 -172.245000 -10.281100 4.589850 39.081100 -0.000007 -0.000012 -0.278288 0.490346 29.576900 40.985400 -0.000006 -0.000013 -2.436830 8.052410 -72.040800 11.754300 -0.000000 0.000003 -0.000181 -0.001702 -16.641900 -2.192510 6.469440 -0.000001 172.937000 23.962500 -172.872000 -39.081100 -0.002282 -0.040193 -0.191856 0.334560 30.256300 -40.985400 0.000008 0.000006 6.086510 10.842200 -75.750200 -11.754300 -0.000006 -0.000006 -0.001552 -0.022964 -17.506900
0.000000 0.000000 0.000000 0.000000 0.000000 -0.000000 -4.540220 90.208000 4.253480 90.783800 0.807330 11.169700 15.735700 0.000005 -0.000001 82.530300 84.147400 -82.497000 8.984550 -0.406207 -0.000000 3.841430 -1.520740 0.117492 16.377300 -0.000001 -0.000001 33.155800 -4.930960 3.299210 6.456720 -0.000001 -0.000000 21.546400 -6.082650 0.598194 12.994200 -0.242716 4.980390 -85.860800 -9.606370 -66.555200 5.348090 -0.000007 -0.000001 -53.337000 -38.832800 -85.569700 24.328600 0.000019 0.000005 18.704500 12.459100 -57.493800 22.291600 -0.000001 0.000005 19.823300 5.261870 1.116850 12.994500 -0.242716 -4.980390 91.639800 -5.086660 -72.105100 -5.348130 -0.000001 -0.000004 -43.992700 -41.437000 -71.824000 -24.328900 0.000322 -0.000009 4.326900 2.132930 -63.815000 -22.291500 -0.000108 -0.000004 26.914800 5.484550 -5.923780 -2.192480 -6.469440 -0.000000 -172.245000 -10.283000 4.478440 39.081100 -0.000007 -0.000012 -0.275734 0.488105 29.462900 40.985400 -0.000006 -0.000013 -2.430310 8.056400 -72.029900 11.754300 -0.000000 0.000003 -0.000184 -0.001725 -16.642800 -2.192510 6.469440 -0.000001 173.039000 24.147900 -172.949000 -39.081100 -0.002282 -0.040193 -0.172826 0.303665 30.114100 -40.985400 0.000008 0.000006 6.465270 10.814600 -75.822800 -11.754300 -0.000006 -0.000006 -0.001525 -0.022597 -17.492000
0.000000 0.000000 0.000000 0.000000 0.000000 -0.000000 -4.513900 90.225100 4.281490 90.734900 0.809594 10.947700 15.735700 0.000005 -0.000001 82.732100 84.160500 -82.666500 8.984550 -0.406207 -0.000000 3.821030 -1.477740 0.180188 16.377300 -0.000001 -0.000001 33.198000 -4.940540 3.365760 6.456720 -0.000001 -0.000000 21.584500 -6.129440 0.667210 12.994200 -0.242716 4.980390 -85.840500 -9.617240 -66.476000 5.348090 -0.000007 -0.000001 -53.544000 -39.004300 -85.772500 24.328600 0.000019 0.000005 18.602300 12.351400 -57.562900 22.291600 -0.000001 0.000005 19.831000 5.265120 1.029740 12.994500 -0.242716 -4.980390 91.657100 -5.130510 -72.073100 -5.348130 -0.000001 -0.000004 -44.011000 -41.706400 -71.764400 -24.328900 0.000322 -0.000009 4.350840 2.128190 -63.990700 -22.291500 -0.000108 -0.000004 26.921500 5.487060 -6.020950 -2.192480 -6.469440 -0.000000 -172.275000 -10.228600 4.301960 39.081100 -0.000007 -0.000012 -0.273753 0.485942 29.395100 40.985400 -0.000006 -0.000013 -2.439390 7.983720 -72.021900 11.754300 -0.000000 0.000003 -0.000199 -0.001840 -16.647000 -2.192510 6.469440 -0.000001 173.147000 24.272800 -173.110000 -39.081100 -0.002282 -0.040193 -0.162315 0.286701 30.013600 -40.985400 0.000008 0.000006 6.653070 10.847700 -75.833900 -11.754300 -0.000006 -0.000006 -0.001372 -0.020561 -17.409200
0.000000 0.000000 0.000000 0.000000 0.000000 -0.000000 -4.481370 90.254800 4.271840 90.709900 0.822786 10.743000 15.735700 0.000005 -0.000001 82.887700 84.138600 -82.806500 8.984550 -0.406207 -0.000000 3.868640 -1.452190 0.211269 16.377300 -0.000001 -0.000001 33.268500 -4.936810 3.446480 6.456720 -0.000001 -0.000000 21.512800 -6.162290 0.734975 12.994200 -0.242716 4.980390 -85.820700 -9.637280 -66.419400 5.348090 -0.000007 -0.000001 -53.661300 -39.231100 -85.960100 24.328600 0.000019 0.000005 18.738100 12.438200 -57.586700 22.291600 -0.000001 0.000005 19.806700 5.262520 1.099550 12.994500 -0.242716 -4.980390 91.670400 -5.158700 -72.029900 -5.348130 -0.000001 -0.000004 -44.180500 -41.928900 -71.847900 -24.328900 0.000322 -0.000009 4.421690 2.160390 -64.017800 -22.291500 -0.000108 -0.000004 26.910100 5.483350 -5.877290 -2.192480 -6.469440 -0.000000 -172.350000 -10.168400 4.132380 39.081100 -0.000007 -0.000012 -0.270841 0.482963 29.283700 40.985400 -0.000006 -0.000013 -2.457440 7.843370 -71.960000 11.754300 -0.000000 0.000003 -0.000170 -0.001611 -16.638600 -2.192510 6.469440 -0.000001 173.246000 24.441600 -173.275000 -39.081100 -0.002282 -0.040193 -0.144222 0.256543 29.901100 -40.985400 0.000008 0.000006 6.935480 10.830800 -75.833600 -11.754300 -0.000006 -0.000006 -0.001497 -0.022237 -17.477300
